<svg id="Layer_1" data-name="Layer 1" xmlns="http://www.w3.org/2000/svg" viewBox="0 0 128 128"><defs><style>.cls-1{fill:#2e79bd;}.cls-2{fill:#2d3e50;}</style></defs><title>b</title><path class="cls-1" d="M91.91829,29.694c-.4852-.06416-.9704-.119-1.45426-.1751a26.81146,26.81146,0,0,0-4.15292-9.99q.45913-.57543.91159-1.15887c.82336-1.05727,1.6347-2.12658,2.40995-3.23064L83.48947,8.99617c-1.10406.77525-2.17337,1.58658-3.23065,2.41q-.58344.45111-1.15886.91159a26.81815,26.81815,0,0,0-10.002-4.1556q-.0822-.72579-.17376-1.45158c-.16574-1.32862-.34752-2.65857-.58009-3.98718H59.65594c-.23124,1.32862-.413,2.65857-.5801,3.98718q-.09223.72579-.17242,1.45158A26.80231,26.80231,0,0,0,48.9,12.31771q-.57542-.46114-1.15886-.91159c-1.05727-.82337-2.12524-1.6347-3.22931-2.41l-6.14451,6.14318c.77658,1.10406,1.58792,2.17337,2.41,3.23064q.45312.58144.91159,1.15753a26.82433,26.82433,0,0,0-4.1556,10.00337q-.72579.08221-1.45025.17376c-1.33.16575-2.65857.34753-3.98852.5801v8.68813c1.33.23123,2.65857.413,3.98852.5801q.72579.09222,1.45025.17243a26.81035,26.81035,0,0,0,4.14891,9.994c-.30609.38494-.61217.76989-.91158,1.16019-.8207,1.05994-1.62936,2.13059-2.40327,3.23733l6.14451,6.14317c1.10673-.77258,2.17737-1.58123,3.23733-2.40193.3903-.2994.77525-.6055,1.1602-.91158a26.81668,26.81668,0,0,0,9.982,4.14623c.05481.48388.11094.96906.1751,1.45294.16842,1.32994.35287,2.65855.58946,3.98851h8.68813c.23658-1.33.42237-2.65857.59079-3.98851.06416-.48388.119-.96906.1751-1.45294a26.81968,26.81968,0,0,0,9.98065-4.14623c.385.30608.77124.61217,1.16154.91158,1.05862.8207,2.12926,1.62935,3.23733,2.40193l6.14317-6.14317c-.77257-1.10674-1.58123-2.17738-2.40327-3.23733-.2994-.39162-.60549-.77659-.91025-1.16153A26.81737,26.81737,0,0,0,90.464,39.73744c.48386-.05614.96906-.11093,1.45426-.17511,1.32862-.1684,2.65857-.35287,3.98718-.58945V30.28476C94.57686,30.04817,93.24691,29.86238,91.91829,29.694ZM72.56917,51.50516a18.92605,18.92605,0,0,1-25.44551-8.30851,18.58142,18.58142,0,0,1-1.12544-2.71337,18.87372,18.87372,0,0,1,1.1348-14.441,19.04817,19.04817,0,0,1,8.28045-8.28045,18.64275,18.64275,0,0,1,2.73207-1.13614A18.95549,18.95549,0,0,1,69.8558,16.627a18.62118,18.62118,0,0,1,2.73074,1.1348A19.04825,19.04825,0,0,1,80.867,26.04228a18.86861,18.86861,0,0,1,.00936,17.15437A19.05294,19.05294,0,0,1,72.56917,51.50516Z" id="id_101" style="fill: rgb(255, 255, 255);"></path><polygon class="cls-1" points="64 19.658 62.366 20.846 62.99 22.767 65.01 22.767 65.634 20.846 64 19.658" id="id_102" style="fill: rgb(255, 255, 255);"></polygon><polygon class="cls-1" points="77.023 27.133 75.178 26.312 73.827 27.814 74.838 29.563 76.813 29.142 77.023 27.133" id="id_103" style="fill: rgb(255, 255, 255);"></polygon><polygon class="cls-1" points="77.07 42.149 76.857 40.14 74.881 39.722 73.872 41.473 75.226 42.972 77.07 42.149" id="id_104" style="fill: rgb(255, 255, 255);"></polygon><polygon class="cls-1" points="64.093 49.704 65.726 48.514 65.098 46.594 63.078 46.598 62.457 48.52 64.093 49.704" id="id_105" style="fill: rgb(255, 255, 255);"></polygon><polygon class="cls-1" points="51.058 42.251 52.905 43.069 54.253 41.565 53.239 39.817 51.265 40.242 51.058 42.251" id="id_106" style="fill: rgb(255, 255, 255);"></polygon><polygon class="cls-1" points="50.987 27.235 51.203 29.244 53.18 29.658 54.185 27.906 52.83 26.409 50.987 27.235" id="id_107" style="fill: rgb(255, 255, 255);"></polygon><circle class="cls-1" cx="64" cy="34.62882" r="6.75988" id="id_108" style="fill: rgb(255, 255, 255);"></circle><path class="cls-2" d="M111.502,88.12776c-10.73246-5.35017-34.28673-13.25658-34.28673-13.25658h-1.9927L68.77744,83.47,74.82,125.27665h45.01911s-.32607-18.10348-2.16579-28.83594A11.463,11.463,0,0,0,111.502,88.12776Z" id="id_109" style="fill: rgb(255, 255, 255);"></path><path class="cls-2" d="M50.78474,74.87118S27.23047,82.77759,16.498,88.12776a11.463,11.463,0,0,0-6.17133,8.31295C8.487,107.17317,8.16089,125.27665,8.16089,125.27665H53.18L59.2226,83.47l-6.44513-8.59881Z" id="id_110" style="fill: rgb(255, 255, 255);"></path></svg>