<svg id="Layer_1" data-name="Layer 1" xmlns="http://www.w3.org/2000/svg" viewBox="0 0 128 128"><defs><style>.cls-1{fill:#2d3e50;}</style></defs><title>b</title><path class="cls-1" d="M124.98236,26.81094,98.02912,29.12746a.70834.70834,0,0,0-.42535,1.221L104.403,36.761l-1.50923,1.54045-1.00708,1.02776-5.11214,5.307q-2.95476,3.11425-5.8859,6.24325-2.09978,2.25041-4.176,4.52739-4.97037,5.43994-9.81377,11.00393c-1.60659,1.86059-3.20727,3.73-4.78433,5.62011-.41936.50206-.83283,1.01-1.24923,1.515L69.179,72.598,42.86815,57.80794l-4.19958-2.35969-3.0094,3.27816-3.76544,4.10212L2.24862,95.11977l6.22554,6.072L40.54981,70.23832h.003l18.777,12.21479,9.60114,6.24621,3.48192,2.26517.79739.51683,4.53033-3.96922q2.782-2.4409,5.47834-4.96152c1.80447-1.67747,3.58234-3.37561,5.35431-5.07966q5.30708-5.12543,10.4576-10.39262c3.44944-3.49964,6.83391-7.0613,10.20952-10.62888l5.02354-5.39271.67925-.74128,1.77621-1.93844,6.49186,6.12268a.70834.70834,0,0,0,1.19343-.47933l1.34582-26.46772A.70833.70833,0,0,0,124.98236,26.81094Z" id="id_101" style="fill: rgb(255, 255, 255);"></path></svg>